HIERARCHY
ROOT hip
{
	OFFSET 0.000000 0.000000 0.000000
	CHANNELS 6 Xposition Yposition Zposition Xrotation Zrotation Yrotation 
	JOINT abdomen
	{
		OFFSET 0.000000 3.422050 0.000000
		CHANNELS 3 Xrotation Zrotation Yrotation 
		JOINT chest
		{
			OFFSET 0.000000 8.486693 -0.684411
			CHANNELS 3 Xrotation Zrotation Yrotation 
			JOINT neck
			{
				OFFSET 0.000000 10.266162 -0.273764
				CHANNELS 3 Xrotation Zrotation Yrotation 
				JOINT head
				{
					OFFSET 0.000000 3.148285 0.000000
					CHANNELS 3 Xrotation Zrotation Yrotation 
					End Site
					{
						OFFSET 0.000000 3.148289 0.000000
					}
				}
			}
			JOINT lCollar
			{
				OFFSET 3.422053 6.707223 -0.821293
				CHANNELS 3 Yrotation Zrotation Xrotation 
				JOINT lShldr
				{
					OFFSET 3.285171 0.000000 0.000000
					CHANNELS 3 Zrotation Yrotation Xrotation 
					JOINT lForeArm
					{
						OFFSET 10.129278 0.000000 0.000000
						CHANNELS 3 Yrotation Zrotation Xrotation 
						JOINT lHand
						{
							OFFSET 8.486692 0.000000 0.000000
							CHANNELS 3 Zrotation Yrotation Xrotation 
							End Site
							{
								OFFSET 4.106464 0.000000 0.000000
							}
						}
					}
				}
			}
			JOINT rCollar
			{
				OFFSET -3.558935 6.707223 -0.821293
				CHANNELS 3 Yrotation Zrotation Xrotation 
				JOINT rShldr
				{
					OFFSET -3.148289 0.000000 0.000000
					CHANNELS 3 Zrotation Yrotation Xrotation 
					JOINT rForeArm
					{
						OFFSET -10.266159 0.000000 0.000000
						CHANNELS 3 Yrotation Zrotation Xrotation 
						JOINT rHand
						{
							OFFSET -8.349810 0.000000 0.000000
							CHANNELS 3 Zrotation Yrotation Xrotation 
							End Site
							{
								OFFSET -4.106464 0.000000 0.000000
							}
						}
					}
				}
			}
		}
	}
	JOINT lThigh
	{
		OFFSET 5.338403 -1.642589 1.368821
		CHANNELS 3 Xrotation Zrotation Yrotation 
		JOINT lShin
		{
			OFFSET -2.053232 -20.121670 0.000000
			CHANNELS 3 Xrotation Zrotation Yrotation 
			JOINT lFoot
			{
				OFFSET 0.000000 -19.300380 -1.231939
				CHANNELS 3 Xrotation Yrotation Zrotation 
				End Site
				{
					OFFSET 0.000000 -2.463878 4.653993
				}
			}
		}
	}
	JOINT rThigh
	{
		OFFSET -5.338403 -1.642589 1.368821
		CHANNELS 3 Xrotation Zrotation Yrotation 
		JOINT rShin
		{
			OFFSET 2.053232 -20.121670 0.000000
			CHANNELS 3 Xrotation Zrotation Yrotation 
			JOINT rFoot
			{
				OFFSET 0.000000 -19.300380 -1.231939
				CHANNELS 3 Xrotation Yrotation Zrotation 
				End Site
				{
					OFFSET 0.000000 -2.463878 4.653993
				}
			}
		}
	}
}
MOTION
Frames: 15
Frame Time: 0.033264
0.000000 43.528500 0.000000 0.000000 0.000000 0.000000 0.000000 0.000000 0.000000 0.000000 0.000000 0.000000 0.000000 0.000000 0.000000 0.000000 0.000000 0.000000 0.000000 0.000000 0.000000 0.000000 0.000000 0.000000 0.000000 0.000000 0.000000 0.000000 0.000000 0.000000 0.000000 0.000000 0.000000 0.000000 0.000000 0.000000 0.000000 0.000000 0.000000 0.000000 0.000000 0.000000 0.000000 0.000000 0.000000 0.000000 0.000000 0.000000 0.000000 0.000000 0.000000 0.000000 0.000000 0.000000 0.000000 0.000000 0.000000 0.000000 0.000000 0.000000 
-14.000420 3.996296 0.000000 -90.001877 0.000000 0.000000 23.363993 -0.431578 -0.183871 18.726925 -1.149271 -0.800935 17.998348 0.000000 0.000000 8.998567 0.000000 0.000000 8.941485 0.877278 0.161166 -46.955746 31.794146 16.626724 -87.067963 16.857887 39.927341 -16.467306 -31.395241 11.940426 -8.610972 -0.665439 0.337423 76.742165 -30.292879 0.734295 74.998512 -0.001709 34.000713 6.998461 -0.202121 23.599018 -0.777024 19.735947 0.502013 10.536926 -2.173503 -0.138981 41.144115 -3.930920 2.415765 -26.723984 -10.012557 -0.402955 64.344391 2.291625 0.117345 18.679640 -1.731586 -5.014312 
-14.000420 3.996296 0.000000 -90.001877 0.000000 0.000000 23.363993 -0.431578 -0.183871 18.726925 -1.149271 -0.800935 17.854141 -0.007512 0.045156 8.432854 0.000000 0.000000 8.941485 0.877278 0.161166 -46.955750 31.794146 16.626722 -87.514259 16.533501 39.553318 -16.467306 -31.395241 11.940426 -8.610972 -0.665439 0.337423 76.742165 -30.292879 0.734295 74.998512 -0.001709 34.000713 6.998461 -0.202121 23.599018 -0.777024 19.735947 0.502013 10.536926 -2.173503 -0.138981 41.144115 -3.930920 2.415765 -26.746677 -10.194541 -0.752146 64.344391 2.291625 0.117345 18.679640 -1.731586 -5.014312 
-14.000420 3.996296 0.000000 -90.001877 0.000000 0.000000 23.363993 -0.431578 -0.183871 18.726925 -1.149271 -0.800935 17.709890 -0.014912 0.090341 7.866231 0.000000 0.000000 8.941485 0.877278 0.161166 -46.955746 31.794146 16.626726 -87.962852 16.211317 39.176575 -16.467306 -31.395241 11.940426 -8.610972 -0.665439 0.337423 76.742165 -30.292879 0.734296 74.998512 -0.001710 34.000717 6.998461 -0.202121 23.599018 -0.777024 19.735947 0.502013 10.536926 -2.173503 -0.138981 41.144119 -3.930921 2.415765 -26.768263 -10.376783 -1.101711 64.344398 2.291625 0.117345 18.679640 -1.731586 -5.014312 
-14.000420 3.996296 0.000000 -90.001884 0.000000 0.000000 23.363993 -0.431578 -0.183871 18.726925 -1.149271 -0.800935 17.565609 -0.022200 0.135555 7.298728 0.000000 0.000000 8.941485 0.877278 0.161166 -46.955750 31.794146 16.626722 -88.413750 15.891397 38.797142 -16.467308 -31.395245 11.940427 -8.610972 -0.665439 0.337423 76.742165 -30.292879 0.734294 74.998512 -0.001709 34.000713 6.998461 -0.202121 23.599018 -0.777024 19.735949 0.502013 10.536926 -2.173503 -0.138981 41.144115 -3.930920 2.415765 -26.788752 -10.559279 -1.451651 64.344391 2.291625 0.117345 18.679640 -1.731586 -5.014312 
-14.000420 3.996296 0.000000 -90.001884 0.000000 0.000000 23.363997 -0.431578 -0.183871 18.726925 -1.149271 -0.800935 17.421286 -0.029375 0.180796 6.730366 0.000000 0.000000 8.941486 0.877278 0.161166 -46.955750 31.794149 16.626726 -88.866905 15.573809 38.415028 -16.467308 -31.395245 11.940427 -8.610973 -0.665439 0.337423 76.742165 -30.292879 0.734294 74.998520 -0.001706 34.000717 6.998462 -0.202121 23.599018 -0.777024 19.735947 0.502013 10.536926 -2.173503 -0.138981 41.144119 -3.930921 2.415765 -26.808130 -10.742016 -1.801966 64.344391 2.291625 0.117345 18.679640 -1.731586 -5.014312 
-14.000420 3.996296 0.000000 -90.001877 0.000000 0.000000 23.363993 -0.431578 -0.183871 18.726925 -1.149271 -0.800935 17.276928 -0.036438 0.226066 6.161177 0.000000 0.000000 8.941485 0.877278 0.161166 -46.955750 31.794149 16.626726 -89.322311 15.258636 38.030277 -16.467306 -31.395241 11.940426 -8.610972 -0.665439 0.337423 76.742165 -30.292879 0.734295 74.998512 -0.001710 34.000717 6.998461 -0.202121 23.599020 -0.777024 19.735947 0.502013 10.536927 -2.173503 -0.138981 41.144115 -3.930920 2.415765 -26.826385 -10.924977 -2.152655 64.344391 2.291625 0.117345 18.679640 -1.731586 -5.014313 
-14.000420 3.996296 0.000000 -90.001877 0.000000 0.000000 23.363991 -0.431578 -0.183871 18.726925 -1.149271 -0.800935 17.132528 -0.043389 0.271362 5.591181 0.000000 0.000000 8.941485 0.877278 0.161166 -46.955742 31.794146 16.626724 -89.779945 14.945932 37.642902 -16.467306 -31.395241 11.940426 -8.610971 -0.665439 0.337423 76.742149 -30.292873 0.734296 74.998497 -0.001711 34.000713 6.998460 -0.202121 23.599016 -0.777024 19.735945 0.502012 10.536924 -2.173503 -0.138981 41.144115 -3.930920 2.415765 -26.843523 -11.108160 -2.503716 64.344383 2.291624 0.117345 18.679638 -1.731586 -5.014312 
-14.000420 3.996296 0.000000 -90.001862 0.000000 0.000000 23.363993 -0.431578 -0.183871 18.726925 -1.149271 -0.800935 16.988100 -0.050226 0.316686 5.020410 0.000000 0.000000 8.941484 0.877278 0.161166 -46.955746 31.794146 16.626724 -90.239784 14.635772 37.252930 -16.467306 -31.395239 11.940424 -8.610970 -0.665439 0.337423 76.742149 -30.292877 0.734298 74.998497 -0.001710 34.000713 6.998460 -0.202121 23.599018 -0.777024 19.735947 0.502013 10.536925 -2.173503 -0.138981 41.144115 -3.930920 2.415765 -26.859539 -11.291551 -2.855150 64.344391 2.291625 0.117345 18.679638 -1.731586 -5.014312 
-14.000420 3.996296 0.000000 -90.001862 0.000000 0.000000 23.363993 -0.431578 -0.183871 18.726925 -1.149271 -0.800935 16.843632 -0.056951 0.362036 4.448887 0.000000 0.000000 8.941485 0.877278 0.161166 -46.955746 31.794142 16.626722 -90.701797 14.328224 36.860390 -16.467306 -31.395239 11.940425 -8.610972 -0.665439 0.337423 76.742149 -30.292877 0.734296 74.998512 -0.001710 34.000713 6.998461 -0.202121 23.599018 -0.777024 19.735947 0.502013 10.536926 -2.173503 -0.138981 41.144115 -3.930920 2.415765 -26.874430 -11.475139 -3.206957 64.344383 2.291625 0.117345 18.679640 -1.731586 -5.014312 
-14.000420 3.996296 0.000000 -90.001877 0.000000 0.000000 23.363993 -0.431578 -0.183871 18.726925 -1.149271 -0.800935 16.699131 -0.063563 0.407412 3.876642 0.000000 0.000000 8.941485 0.877278 0.161166 -46.955746 31.794146 16.626724 -91.165962 14.023356 36.465317 -16.467306 -31.395241 11.940426 -8.610971 -0.665439 0.337423 76.742149 -30.292877 0.734296 74.998512 -0.001709 34.000713 6.998461 -0.202121 23.599018 -0.777024 19.735947 0.502013 10.536926 -2.173503 -0.138981 41.144115 -3.930920 2.415765 -26.888176 -11.658908 -3.559135 64.344391 2.291625 0.117345 18.679640 -1.731586 -5.014312 
-14.000420 3.996296 0.000000 -90.001877 0.000000 0.000000 23.363991 -0.431578 -0.183871 18.726925 -1.149271 -0.800935 16.554592 -0.070061 0.452814 3.303699 0.000000 0.000000 8.941485 0.877278 0.161166 -46.955742 31.794146 16.626722 -91.632256 13.721242 36.067741 -16.467306 -31.395241 11.940426 -8.610972 -0.665439 0.337423 76.742165 -30.292879 0.734295 74.998512 -0.001709 34.000713 6.998461 -0.202121 23.599018 -0.777024 19.735947 0.502013 10.536926 -2.173503 -0.138981 41.144115 -3.930920 2.415765 -26.900793 -11.842855 -3.911686 64.344391 2.291625 0.117345 18.679640 -1.731586 -5.014312 
-14.000420 3.996296 0.000000 -90.001877 0.000000 0.000000 23.363993 -0.431578 -0.183871 18.726925 -1.149271 -0.800935 16.410030 -0.076446 0.498240 2.730086 0.000000 0.000000 8.941485 0.877278 0.161166 -46.955746 31.794146 16.626724 -92.100647 13.421936 35.667690 -16.467306 -31.395241 11.940426 -8.610972 -0.665439 0.337423 76.742165 -30.292879 0.734295 74.998512 -0.001709 34.000713 6.998461 -0.202121 23.599018 -0.777024 19.735947 0.502013 10.536926 -2.173503 -0.138981 41.144115 -3.930920 2.415765 -26.912262 -12.026965 -4.264607 64.344391 2.291625 0.117345 18.679640 -1.731586 -5.014312 
-14.000420 3.996296 0.000000 -90.001877 0.000000 0.000000 23.363993 -0.431578 -0.183871 18.726925 -1.149271 -0.800935 16.265429 -0.082718 0.543692 2.155833 0.000000 0.000000 8.941485 0.877278 0.161166 -46.955746 31.794146 16.626724 -92.571091 13.125504 35.265190 -16.467306 -31.395241 11.940426 -8.610972 -0.665439 0.337423 76.742165 -30.292879 0.734295 74.998512 -0.001709 34.000713 6.998461 -0.202121 23.599018 -0.777024 19.735947 0.502013 10.536926 -2.173503 -0.138981 41.144119 -3.930921 2.415765 -26.922581 -12.211224 -4.617898 64.344391 2.291625 0.117345 18.679640 -1.731586 -5.014312 
-14.000420 3.996296 0.000000 -90.001877 0.000000 0.000000 23.363993 -0.431578 -0.183871 18.726925 -1.149271 -0.800935 16.120792 -0.088876 0.589168 1.580967 0.000000 0.000000 8.941485 0.877278 0.161166 -46.955746 31.794146 16.626724 -93.043587 12.832026 34.860302 -16.467306 -31.395241 11.940426 -8.610972 -0.665439 0.337423 76.742165 -30.292879 0.734295 74.998512 -0.001709 34.000713 6.998461 -0.202121 23.599018 -0.777024 19.735947 0.502013 10.536926 -2.173503 -0.138981 41.144115 -3.930920 2.415765 -26.931744 -12.395623 -4.971560 64.344391 2.291625 0.117345 18.679640 -1.731586 -5.014312 
